# xmcd
#
# Track frame offsets:
#	150
#	23164
#	36273
#	57083
#	72826
#	93286
#	111125
#	130777
#	147897
#	162262
#	177173
#	194157
#	207610
#
# Disc length: 2941 seconds
#
# Revision: 1
# Processed by: cddbd v1.5PL3 Copyright (c) Steve Scherf et al.
# Submitted via: audiograbber 1.83.01
#
DISCID=bb0b7b0d
DTITLE=Edip Akbayram - Nedir Ne Degildir (Affetmem Seni)
DYEAR=1900
DGENRE=
TTITLE0=Yaralarim
TTITLE1=Arabam Kaldi Yolda
TTITLE2=Adam Olmak Dile Kolay
TTITLE3=Dar Agaci
TTITLE4=Gam Üstüne Gam
TTITLE5=Birak Beni
TTITLE6=Ayrilik
TTITLE7=Affetmem Seni
TTITLE8=Haberin Var Mi?
TTITLE9=Sen Açtin Yarayi
TTITLE10=Kahpe Felek
TTITLE11=Zalim Zalim
TTITLE12=Kaslarin Karasina
EXTD=
EXTT0=
EXTT1=
EXTT2=
EXTT3=
EXTT4=
EXTT5=
EXTT6=
EXTT7=
EXTT8=
EXTT9=
EXTT10=
EXTT11=
EXTT12=
PLAYORDER=
